<?xml version="1.0" encoding="UTF-8"?>
<svg version="1.1" xmlns="http://www.w3.org/2000/svg" width="500" height="500">
<path d="M0 0 C165 0 330 0 500 0 C500 165 500 330 500 500 C335 500 170 500 0 500 C0 335 0 170 0 0 Z " fill="#FEFEFE" transform="translate(0,0)"/>
<path d="M0 0 C4.10751239 -0.09985537 8.21454209 -0.17192603 12.32299805 -0.21972656 C13.71667814 -0.23967995 15.1102763 -0.26685319 16.50366211 -0.30175781 C24.60907397 -0.49952172 31.99960009 -0.63192098 39 4 C43.49821857 8.38287963 45.05660894 13.19821335 45.375 19.375 C45.25126307 24.26673316 43.80690112 28.01077075 41 32 C38.71809758 34.11890939 36.76653461 35.61673269 34 37 C35.9816009 43.5871898 38.99968761 49.70005822 41.8984375 55.91992188 C42.29546875 56.78552734 42.6925 57.65113281 43.1015625 58.54296875 C43.46588379 59.32696045 43.83020508 60.11095215 44.20556641 60.91870117 C45 63 45 63 45 66 C40.71 66 36.42 66 32 66 C31.21496094 64.13472656 30.42992187 62.26945312 29.62109375 60.34765625 C28.83522593 58.54641938 28.04916009 56.74526193 27.25756836 54.9465332 C26.71349052 53.69656337 26.17918128 52.44229328 25.6550293 51.18383789 C24.89886998 49.37320476 24.10413684 47.57883416 23.30859375 45.78515625 C22.84251709 44.70113525 22.37644043 43.61711426 21.89624023 42.50024414 C19.80558316 39.13496353 19.80558316 39.13496353 13 39 C13 47.91 13 56.82 13 66 C8.71 66 4.42 66 0 66 C0 53.13 0 40.26 0 27 C12.6875 26.6875 12.6875 26.6875 16.6628418 26.61206055 C17.70609619 26.57894775 18.74935059 26.54583496 19.82421875 26.51171875 C20.88729248 26.48553467 21.95036621 26.45935059 23.0456543 26.43237305 C26.40381167 25.94090154 28.33546478 25.09125001 31 23 C31.75 19.5 31.75 19.5 31 16 C27.84075998 12.7538386 25.11335788 12.59229618 20.703125 12.48828125 C19.49785156 12.45283203 18.29257813 12.41738281 17.05078125 12.38085938 C15.79652344 12.35830078 14.54226562 12.33574219 13.25 12.3125 C11.98027344 12.27833984 10.71054688 12.24417969 9.40234375 12.20898438 C6.26854001 12.12651586 3.13428376 12.06158146 0 12 C0 8.04 0 4.08 0 0 Z " fill="#4E31FF" transform="translate(205,222)"/>
<path d="M0 0 C4.29 0 8.58 0 13 0 C16.03344616 7.50012607 18.92248985 15.04506237 21.75 22.625 C22.16121094 23.72457031 22.57242187 24.82414062 22.99609375 25.95703125 C23.99840914 28.63764216 24.99934863 31.31876748 26 34 C28.64 26.74 31.28 19.48 34 12 C38.29 12 42.58 12 47 12 C45.0490264 18.76214526 42.8350508 25.29976511 40.2421875 31.83984375 C39.7194072 33.17300377 39.7194072 33.17300377 39.18606567 34.53309631 C38.08611504 37.33605058 36.98077237 40.13683799 35.875 42.9375 C34.76322869 45.76359284 33.65257393 48.59012111 32.54251099 51.41688538 C31.8548469 53.16691526 31.16598882 54.91647656 30.47579956 56.66551208 C30.00993942 57.84803307 30.00993942 57.84803307 29.53466797 59.05444336 C29.26169891 59.74598007 28.98872986 60.43751678 28.70748901 61.15000916 C28.09527589 62.75086607 27.54199149 64.37402553 27 66 C26.34 66 25.68 66 25 66 C24.34366577 64.31765259 24.34366577 64.31765259 23.67407227 62.60131836 C22.37138198 59.26223944 21.06852867 55.92322417 19.765625 52.58422852 C18.29503691 48.81539436 16.82505323 45.04632521 15.35546875 41.27709961 C12.22714898 33.25536311 9.09821408 25.23406018 5.93359375 17.2265625 C5.51198975 16.15801025 5.09038574 15.08945801 4.65600586 13.98852539 C3.90315255 12.08293998 3.14759196 10.17842121 2.38891602 8.27514648 C2.06463623 7.45344971 1.74035645 6.63175293 1.40625 5.78515625 C1.13103516 5.09301025 0.85582031 4.40086426 0.57226562 3.68774414 C0 2 0 2 0 0 Z " fill="#4D31FF" transform="translate(246,223)"/>
<path d="M0 0 C1.62463842 -0.05395478 3.24978541 -0.09277195 4.875 -0.125 C5.77992188 -0.14820313 6.68484375 -0.17140625 7.6171875 -0.1953125 C10 0 10 0 12 2 C11.46428571 5.53571429 11.46428571 5.53571429 10 7 C8.31391034 7.07205511 6.62499341 7.08386068 4.9375 7.0625 C4.01839844 7.05347656 3.09929687 7.04445313 2.15234375 7.03515625 C1.44207031 7.02355469 0.73179687 7.01195312 0 7 C0 4.69 0 2.38 0 0 Z " fill="#E5E5E5" transform="translate(241,293)"/>
<path d="M0 0 C3.3 0 6.6 0 10 0 C9.01 0.33 8.02 0.66 7 1 C7 1.66 7 2.32 7 3 C7.99 3.33 8.98 3.66 10 4 C9.01 4 8.02 4 7 4 C7 4.99 7 5.98 7 7 C4.69 7 2.38 7 0 7 C0.33 6.34 0.66 5.68 1 5 C1.66 5.33 2.32 5.66 3 6 C3 5.34 3 4.68 3 4 C2.01 3.67 1.02 3.34 0 3 C0 2.01 0 1.02 0 0 Z " fill="#606060" transform="translate(224,293)"/>
<path d="M0 0 C0.66 0 1.32 0 2 0 C2 0.99 2 1.98 2 3 C2.99 3 3.98 3 5 3 C5 2.01 5 1.02 5 0 C6.32 0 7.64 0 9 0 C9 2.31 9 4.62 9 7 C7.68 7 6.36 7 5 7 C5 6.01 5 5.02 5 4 C4.01 4 3.02 4 2 4 C2 4.99 2 5.98 2 7 C1.34 7 0.68 7 0 7 C0 4.69 0 2.38 0 0 Z " fill="#404040" transform="translate(198,293)"/>
<path d="M0 0 C3.3 0 6.6 0 10 0 C9.01 0.495 9.01 0.495 8 1 C8 1.66 8 2.32 8 3 C8.66 3.33 9.32 3.66 10 4 C9.34 4 8.68 4 8 4 C8 4.66 8 5.32 8 6 C8.66 6.33 9.32 6.66 10 7 C8.68 7 7.36 7 6 7 C6 5.02 6 3.04 6 1 C5.34 1 4.68 1 4 1 C4 2.98 4 4.96 4 7 C3.34 7 2.68 7 2 7 C2 5.02 2 3.04 2 1 C1.34 0.67 0.68 0.34 0 0 Z " fill="#525252" transform="translate(266,293)"/>
<path d="M0 0 C2.475 0.495 2.475 0.495 5 1 C5.625 2.875 5.625 2.875 6 5 C5.34 5.66 4.68 6.32 4 7 C2.68 7 1.36 7 0 7 C0 4.69 0 2.38 0 0 Z " fill="#7E7E7E" transform="translate(247,293)"/>
<path d="M0 0 C3 1 3 1 4 3 C4.66 2.01 5.32 1.02 6 0 C6 2.31 6 4.62 6 7 C5.01 6.34 4.02 5.68 3 5 C2.67 5.66 2.34 6.32 2 7 C1.34 7 0.68 7 0 7 C0 4.69 0 2.38 0 0 Z " fill="#3F3F3F" transform="translate(259,293)"/>
<path d="M0 0 C1.98 0.99 1.98 0.99 4 2 C4.66 1.34 5.32 0.68 6 0 C6 2.31 6 4.62 6 7 C5.01 6.34 4.02 5.68 3 5 C2.67 5.66 2.34 6.32 2 7 C1.34 7 0.68 7 0 7 C0 4.69 0 2.38 0 0 Z " fill="#4D4D4D" transform="translate(284,293)"/>
<path d="M0 0 C0.66 0 1.32 0 2 0 C2 0.99 2 1.98 2 3 C2.99 3 3.98 3 5 3 C5.33 2.01 5.66 1.02 6 0 C6 2.31 6 4.62 6 7 C5.67 6.01 5.34 5.02 5 4 C4.01 4 3.02 4 2 4 C2 4.99 2 5.98 2 7 C1.34 7 0.68 7 0 7 C0 4.69 0 2.38 0 0 Z " fill="#404040" transform="translate(216,293)"/>
<path d="M0 0 C0.99 0 1.98 0 3 0 C3 2.31 3 4.62 3 7 C2.01 7 1.02 7 0 7 C0 4.69 0 2.38 0 0 Z " fill="#888888" transform="translate(204,293)"/>
<path d="M0 0 C1.32 0.33 2.64 0.66 4 1 C3.34 1 2.68 1 2 1 C2 1.66 2 2.32 2 3 C2.66 3.33 3.32 3.66 4 4 C3.34 4 2.68 4 2 4 C2 4.66 2 5.32 2 6 C2.66 6.33 3.32 6.66 4 7 C2.68 7 1.36 7 0 7 C0 4.69 0 2.38 0 0 Z " fill="#404040" transform="translate(241,293)"/>
<path d="M0 0 C1.7074998 1.28062485 3.37373596 2.61767557 5 4 C5 4.66 5 5.32 5 6 C3.35 6.33 1.7 6.66 0 7 C0 4.69 0 2.38 0 0 Z " fill="#D5D5D5" transform="translate(222,293)"/>
</svg>
