<svg xmlns="http://www.w3.org/2000/svg" version="1.1" xmlns:xlink="http://www.w3.org/1999/xlink" xmlns:svgjs="http://svgjs.dev/svgjs" width="1440" height="560" preserveAspectRatio="none" viewBox="0 0 1440 560"><g mask="url(&quot;#SvgjsMask1122&quot;)" fill="none"><path d="M -421.32812827865945,368 C -349.33,319 -205.33,130.2 -61.32812827865947,123 C 82.67,115.8 154.67,331.8 298.67187172134055,332 C 442.67,332.2 514.67,134 658.6718717213405,124 C 802.67,114 874.67,279.4 1018.6718717213405,282 C 1162.67,284.6 1294.41,105.6 1378.6718717213405,137 C 1462.94,168.4 1427.73,378.6 1440,439" stroke="rgba(51, 121, 194, 0.58)" stroke-width="2"></path><path d="M -459.7208262868454,173 C -387.72,212.2 -243.72,382 -99.7208262868454,369 C 44.28,356 116.28,88.6 260.2791737131546,108 C 404.28,127.4 476.28,455.4 620.2791737131546,466 C 764.28,476.6 836.28,185.6 980.2791737131546,161 C 1124.28,136.4 1248.34,351.2 1340.2791737131547,343 C 1432.22,334.8 1420.06,164.6 1440,120" stroke="rgba(51, 121, 194, 0.58)" stroke-width="2"></path><path d="M -394.82744375392906,384 C -322.83,351.8 -178.83,228.6 -34.82744375392906,223 C 109.17,217.4 181.17,374.8 325.17255624607094,356 C 469.17,337.2 541.17,131.8 685.1725562460709,129 C 829.17,126.2 901.17,323.4 1045.172556246071,342 C 1189.17,360.6 1326.21,213.6 1405.172556246071,222 C 1484.14,230.4 1433.03,351.6 1440,384" stroke="rgba(51, 121, 194, 0.58)" stroke-width="2"></path><path d="M -412.7739978059446,186 C -340.77,210.8 -196.77,313.8 -52.77399780594459,310 C 91.23,306.2 163.23,172.6 307.2260021940554,167 C 451.23,161.4 523.23,266.8 667.2260021940554,282 C 811.23,297.2 883.23,212.6 1027.2260021940554,243 C 1171.23,273.4 1304.67,444.2 1387.2260021940554,434 C 1469.78,423.8 1429.45,240.4 1440,192" stroke="rgba(51, 121, 194, 0.58)" stroke-width="2"></path></g><defs><mask id="SvgjsMask1122"><rect width="1440" height="560" fill="#ffffff"></rect></mask></defs></svg>